<svg xmlns="http://www.w3.org/2000/svg" viewBox="0 0 256 256" role="img" aria-labelledby="title desc">
  <title id="title">ExploringDatabyLLMs favicon</title>
  <desc id="desc">Aviation-themed icon with a flight path and chart bars.</desc>
  <defs>
    <linearGradient id="bg" x1="24" y1="20" x2="224" y2="236" gradientUnits="userSpaceOnUse">
      <stop offset="0" stop-color="#0e3a52"/>
      <stop offset="0.56" stop-color="#26749a"/>
      <stop offset="1" stop-color="#1f8a70"/>
    </linearGradient>
    <linearGradient id="bars" x1="0" y1="160" x2="0" y2="222" gradientUnits="userSpaceOnUse">
      <stop offset="0" stop-color="#f8fbfd" stop-opacity="0.96"/>
      <stop offset="1" stop-color="#b9e2d7" stop-opacity="0.88"/>
    </linearGradient>
    <filter id="shadow" x="-20%" y="-20%" width="140%" height="140%">
      <feDropShadow dx="0" dy="8" stdDeviation="10" flood-color="#0a2331" flood-opacity="0.28"/>
    </filter>
  </defs>

  <rect x="16" y="16" width="224" height="224" rx="52" fill="url(#bg)"/>
  <circle cx="196" cy="64" r="22" fill="#f8fbfd" fill-opacity="0.14"/>
  <circle cx="64" cy="190" r="34" fill="#f8fbfd" fill-opacity="0.08"/>

  <g fill="url(#bars)" fill-opacity="0.94">
    <rect x="48" y="162" width="24" height="44" rx="10"/>
    <rect x="82" y="146" width="24" height="60" rx="10"/>
    <rect x="116" y="128" width="24" height="78" rx="10"/>
  </g>

  <path
    d="M44 154C62 126 88 102 119 88c23-11 51-17 81-16"
    fill="none"
    stroke="#f8fbfd"
    stroke-linecap="round"
    stroke-width="16"
    opacity="0.95"
  />
  <path
    d="M46 154C72 127 98 110 121 100c28-12 52-16 77-16"
    fill="none"
    stroke="#9ed8ef"
    stroke-dasharray="1 22"
    stroke-linecap="round"
    stroke-width="5"
    opacity="0.9"
  />

  <g transform="translate(158 54) rotate(-15)" filter="url(#shadow)">
    <path
      d="M48 0 22 16H2c-5 0-7 6-3 9l14 10-7 26c-1 5 4 8 8 5l18-12 11 7c3 2 7 0 7-4V38l14-9c4-3 2-9-3-9H48V0Z"
      fill="#f8fbfd"
    />
    <path
      d="M16 26h42"
      stroke="#0e3a52"
      stroke-linecap="round"
      stroke-width="4"
      opacity="0.3"
    />
  </g>
</svg>
